#!OML:ASF H:\ColoradoDance\Project 1\Capture day 1\Session 8\male.ASF
:FULLY-SPECIFIED
:DEGREES
131
upperback -3.480310 -2.507290 -0.035989
rfoot -53.662899 -45.603298
lradius 34.622501
lthumb 9.796120 404.339996
rradius 31.204901
lwrist -8.798470
rhand -37.445400 -7.451050
rhumerus -54.277100 -10.920300 -67.988998
lowerneck -6.121810 4.072210 6.804220
lhand -16.418800 -345.411987
ltibia 23.502199
head 4.574400 2.686210 -2.987520
rwrist 4.932170
lfingers 7.125020
rtoes 23.525299
lowerback 0.950812 -1.865990 -1.130030
rfingers 7.125020
lclavicle -0.000000 -0.000000
upperneck 10.612400 5.659520 -7.185590
rfemur -23.720699 19.448099 -5.362360
thorax -4.067800 -1.202600 0.705650
rclavicle -0.000000 -0.000000
rtibia 26.741800
lfoot -20.309500 14.917800
lhumerus -39.108200 -6.484870 79.253098
rthumb -10.504300 -37.168598
root -27.207100 19.547899 -17.191099 736.745972 63.860600 -1430.400024
ltoes -5.732620
lfemur -5.312400 -7.739830 -15.637300
132
upperback -2.888790 0.278735 -0.238423
rfoot -19.384899 -20.696501
lradius 20.966299
lthumb 5.886100 435.550995
rradius 26.532801
lwrist -17.976200
rhand -27.733700 -0.828402
rhumerus -55.858398 -14.504600 -67.348000
lowerneck -6.272600 -0.428790 4.689450
lhand -20.469999 -314.347992
ltibia 27.531000
head 4.251680 -0.276801 -1.865170
rwrist 14.359400
lfingers 7.125020
rtoes 0.699383
lowerback 0.735007 0.208374 -0.781829
rfingers 7.125020
lclavicle -0.000000 0.000000
upperneck 10.876300 -0.615035 -3.477300
rfemur -23.557699 1.409410 7.439700
thorax -3.381220 0.168399 0.182047
rclavicle -0.000000 0.000000
rtibia 46.070801
lfoot -16.582600 -1.695520
lhumerus -37.324402 6.529510 60.801300
rthumb -1.128680 -30.805201
root -27.081301 19.830299 -19.476400 812.218994 87.564201 -1354.550049
ltoes -1.151770
lfemur -13.900100 -11.946100 -16.866400
133
upperback -2.301840 -0.820808 -0.639233
rfoot -17.039200 -18.487301
lradius 17.381901
lthumb 4.008290 418.467987
rradius 36.278000
lwrist -26.909401
rhand -33.911800 -1.597150
rhumerus -50.346401 -11.715300 -72.234497
lowerneck -5.861770 -2.686680 2.577680
lhand -22.414700 -331.473999
ltibia 28.532301
head 3.640410 -1.787500 -1.457940
rwrist 5.869410
lfingers 7.125020
rtoes -4.710400
lowerback 1.124220 -0.582874 -1.772660
rfingers 7.125020
lclavicle 0.000000 -0.000000
upperneck 8.299750 -3.588500 -2.504100
rfemur -36.430000 -1.788310 17.277399
thorax -2.977840 -0.367433 0.366348
rclavicle 0.000000 -0.000000
rtibia 49.994900
lfoot -17.896999 4.198180
lhumerus -46.650501 12.266300 49.688400
rthumb -7.094400 -31.458200
root -26.618799 19.802299 -20.902800 889.276001 79.811996 -1277.349976
ltoes -4.711640
lfemur -13.241000 -4.847110 -21.057699
134
upperback -2.457630 -1.477930 -0.729947
rfoot -19.655800 -22.540001
lradius 21.127701
lthumb 19.787399 402.260010
rradius 36.596699
lwrist -20.405899
rhand -31.379999 -0.949588
rhumerus -49.283001 -9.021920 -73.700996
lowerneck -5.642030 -3.537720 1.896010
lhand -6.046740 -346.752014
ltibia 21.257601
head 3.318750 -2.353010 -1.345270
rwrist 6.813630
lfingers 7.125020
rtoes -9.162350
lowerback 0.697140 -1.073150 -2.499370
rfingers 7.125020
lclavicle -0.000000 -0.000000
upperneck 7.546780 -4.681230 -2.450700
rfemur -44.693298 11.051700 9.165520
thorax -2.870610 -0.676318 0.695751
rclavicle -0.000000 -0.000000
rtibia 32.177898
lfoot -16.653000 -2.527030
lhumerus -50.648602 14.630000 61.124401
rthumb -4.650090 -30.878599
root -25.546000 19.860001 -21.870701 891.205994 75.717499 -1276.650024
ltoes 1.277330
lfemur -7.039070 -3.446480 -24.124901
135
upperback -2.486840 -1.798240 -0.884559
rfoot -18.019300 -20.258801
lradius 28.657400
lthumb 12.264600 405.841003
rradius 28.274200
lwrist -12.312600
rhand -32.815201 -4.624920
rhumerus -52.681000 -10.553400 -73.861397
lowerneck -6.032120 -3.878300 -0.066937
lhand -13.859500 -343.779999
ltibia 15.538700
head 3.711460 -2.542520 -0.517551
rwrist 9.431230
lfingers 7.125020
rtoes -16.317900
lowerback -0.201765 -1.333740 -3.236050
rfingers 7.125020
lclavicle -0.000000 0.000000
upperneck 8.209190 -5.089540 -0.826161
rfemur -45.960400 7.165410 7.583580
thorax -2.369020 -0.824279 0.935230
rclavicle -0.000000 0.000000
rtibia 28.562401
lfoot -19.200500 -0.345422
lhumerus -46.822498 7.329620 77.868103
rthumb -6.035780 -34.518902
root -23.738199 19.558901 -22.424601 891.820007 73.535103 -1276.489990
ltoes 1.963350
lfemur 2.068040 -8.430110 -25.983900
136
upperback -3.603030 -2.760100 -0.315112
rfoot -10.164200 -19.434000
lradius 31.878201
lthumb 10.933800 408.261993
rradius 23.516199
lwrist -11.351300
rhand -31.792601 -8.884380
rhumerus -56.625900 -13.535800 -69.819603
lowerneck -6.521320 -2.983300 0.674582
lhand -15.239400 -341.433014
ltibia 7.544750
head 3.694590 -1.967860 -0.989561
rwrist 15.797900
lfingers 7.125020
rtoes -11.163900
lowerback -0.970487 -2.087340 -3.118450
rfingers 7.125020
lclavicle 0.000000 0.000000
upperneck 7.984840 -3.860480 -2.032150
rfemur -41.539299 7.131210 11.639300
thorax -3.029200 -1.267510 1.461850
rclavicle 0.000000 0.000000
rtibia 30.580099
lfoot -12.547800 -0.801539
lhumerus -45.550301 0.478227 81.340698
rthumb -5.048460 -38.804199
root -20.828699 19.337400 -22.644899 896.320007 73.886200 -1273.150024
ltoes -14.330300
lfemur 14.123900 -10.643800 -24.202000
137
upperback -3.390880 -3.422900 0.220159
rfoot -6.101140 -7.206280
lradius 25.796400
lthumb 23.590700 388.976013
rradius 30.876900
lwrist -15.934200
rhand -28.768101 8.401200
rhumerus -56.629501 -14.273700 -68.585297
lowerneck -7.199170 0.198078 4.346050
lhand -2.086210 -359.596985
ltibia 30.817200
head 4.163420 0.086698 -2.119630
rwrist 7.882790
lfingers 7.125020
rtoes 0.820408
lowerback -0.770846 -2.604610 0.199567
rfingers 7.125020
lclavicle 0.000000 0.000000
upperneck 9.950820 0.322670 -4.660510
rfemur -28.150801 4.387710 22.472401
thorax -3.047880 -1.691050 0.178572
rclavicle 0.000000 0.000000
rtibia 31.788700
lfoot 20.433599 1.478050
lhumerus -42.167801 4.726690 72.864098
rthumb -2.127760 -21.567900
root -17.141600 19.820200 -22.735300 905.960022 80.153801 -1260.439941
ltoes 1.056100
lfemur 10.385900 -2.627620 -17.945400
138
upperback -3.385640 -2.304760 0.171398
rfoot -13.649400 -5.533550
lradius 34.950401
lthumb 3.460000 411.812988
rradius 33.160999
lwrist -12.241000
rhand -31.332600 -2.754710
rhumerus -55.044800 -11.840300 -70.616898
lowerneck -5.432750 1.432750 5.019330
lhand -22.982500 -338.139008
ltibia 57.699200
head 3.719710 0.952543 -2.429280
rwrist 7.761240
lfingers 7.125020
rtoes 0.901913
lowerback -0.306684 -1.777490 1.347180
rfingers 7.125020
lclavicle -0.000000 0.000000
upperneck 9.140220 2.069520 -5.614910
rfemur -16.495300 6.819200 25.586100
thorax -3.352880 -1.168030 -0.517246
rclavicle -0.000000 0.000000
rtibia 29.420700
lfoot -1.418210 10.889200
lhumerus -37.309101 1.316720 72.782204
rthumb -4.604260 -32.684700
root -14.401800 19.925900 -22.853201 920.083008 86.053596 -1245.420044
ltoes 5.091860
lfemur -15.216600 8.526990 -14.819800
139
upperback -3.173080 -1.181670 0.306893
rfoot -20.553499 -4.770400
lradius 34.824600
lthumb 5.421330 413.822998
rradius 31.697701
lwrist -9.538380
rhand -29.475100 -0.049718
rhumerus -56.074902 -11.690300 -69.248497
lowerneck -5.092600 2.930210 6.749470
lhand -20.951300 -336.087006
ltibia 39.967999
head 3.706120 1.938270 -2.999590
rwrist 8.289800
lfingers 7.125020
rtoes -3.766810
lowerback -0.219758 -0.952207 2.848200
rfingers 7.125020
lclavicle -0.000000 0.000000
upperneck 8.725160 4.054960 -6.874550
rfemur -8.754760 10.542500 26.353901
thorax -3.191150 -0.647351 -1.249330
rclavicle -0.000000 0.000000
rtibia 29.174000
lfoot -12.891600 18.526300
lhumerus -39.196800 -1.048940 73.553802
rthumb -2.810580 -30.010900
root -12.030100 19.667801 -23.256901 1050.209961 86.199699 -1115.959961
ltoes 2.654840
lfemur -32.488300 3.971320 -12.168200
140
upperback -2.642510 0.579993 1.169640
rfoot -23.303200 -4.784840
lradius 25.165100
lthumb 7.975410 413.471985
rradius 27.188101
lwrist -18.782801
rhand -30.946301 -1.280500
rhumerus -59.377899 -13.304000 -65.582298
lowerneck -5.689570 4.298840 9.021640
lhand -18.305599 -336.356995
ltibia 24.041201
head 4.118050 2.792570 -3.384160
rwrist 9.526070
lfingers 7.125020
rtoes -14.206700
lowerback -0.339601 0.343400 5.220290
rfingers 7.125020
lclavicle 0.000000 -0.000000
upperneck 9.117310 5.704240 -7.273500
rfemur 3.790130 17.071400 29.580700
thorax -2.494800 0.205463 -1.730930
rclavicle 0.000000 -0.000000
rtibia 25.205500
lfoot -22.107800 29.717501
lhumerus -45.970100 4.639370 68.478996
rthumb -4.231270 -31.218201
root -9.215820 19.233700 -23.836800 1055.780029 77.055199 -1109.910034
ltoes -0.985236
lfemur -33.834999 -4.268320 -1.543920
141
upperback -2.929780 1.252110 0.267913
rfoot -1.808940 8.365800
lradius 17.321699
lthumb 2.656450 415.372986
rradius 23.665800
lwrist -27.374800
rhand -26.837500 -0.705057
rhumerus -61.953800 -14.234400 -60.538700
lowerneck -6.408430 4.522200 9.478290
lhand -23.814600 -334.589996
ltibia 28.486601
head 4.549480 2.915540 -3.233080
rwrist 13.642400
lfingers 7.125020
rtoes -23.953300
lowerback 0.267818 0.890334 1.544510
rfingers 7.125020
lclavicle 0.000000 -0.000000
upperneck 10.102700 5.874560 -6.645410
rfemur 12.352800 16.540001 19.239401
thorax -3.131610 0.598990 -0.627504
rclavicle 0.000000 -0.000000
rtibia 24.861099
lfoot -7.105980 19.759701
lhumerus -52.001400 13.235700 60.689899
rthumb -0.263103 -30.684601
root -5.721190 19.572500 -24.977800 1071.859985 74.919403 -1092.040039
ltoes 9.504500
lfemur -25.467199 3.591160 -13.156800
142
upperback -3.494270 0.509870 -0.312125
rfoot -10.146500 -20.282900
lradius 18.838100
lthumb 14.236300 409.938995
rradius 29.254601
lwrist -27.221600
rhand -26.435699 19.815901
rhumerus -51.963501 -5.709060 -66.974098
lowerneck -3.677970 5.580790 9.112890
lhand -11.814000 -339.553009
ltibia 27.656700
head 4.254780 3.845420 -3.713800
rwrist 11.677700
lfingers 7.125020
rtoes -9.604720
lowerback 0.934765 0.360642 0.287781
rfingers 7.125020
lclavicle -0.000000 -0.000000
upperneck 9.914830 7.833800 -8.601500
rfemur -8.028990 1.132380 3.495310
thorax -4.114140 0.251547 -0.506567
rclavicle -0.000000 -0.000000
rtibia 44.954700
lfoot -13.620800 9.271680
lhumerus -52.250000 8.525540 65.677101
rthumb 0.124939 -10.163800
root -2.603430 19.664200 -26.348700 1087.250000 71.669998 -1074.839966
ltoes 12.654000
lfemur -14.633200 12.526400 -25.147400
